<?xml version="1.0" standalone="no"?> <!DOCTYPE svg PUBLIC "-//W3C//DTD SVG 1.0//EN" "http://www.w3.org/TR/2001/REC-SVG-20010904/DTD/svg10.dtd" > <svg xmlns="http://www.w3.org/2000/svg" width="100%" height="100%">
<defs >
<font id="ucberkeleyosbold" horiz-adv-x="411" ><font-face
    font-family="UC Berkeley OS"
    units-per-em="1000"
    panose-1="2 0 0 0 0 0 0 0 0 0"
    ascent="715"
    descent="-285"
    alphabetic="0" />
<missing-glyph horiz-adv-x="500" d="M35 0V606H465V0H35ZM262 304L445 32V576L262 304ZM237 304L55 575V34L237 304ZM249 286L70 20H428L249 286ZM72 586L249 323L426 586H72Z" />
<glyph unicode=" " glyph-name="space" horiz-adv-x="166" />
<glyph unicode="!" glyph-name="exclam" horiz-adv-x="282" d="M202 429Q202 413 196 368T180 258T167 172Q165 158 164 150T162 136T159 129T154 127Q140 127 137 143T133 226Q133 313 127 385T112 493T98 553T91 578Q91 595 121 595Q148 595 175 549T202 429ZM197
50T197 31T184 0T152 -12T120 0T107 31T119 62T152 74Q171 74 184 62Z" />
<glyph unicode="&quot;" glyph-name="quotedbl" horiz-adv-x="327" d="M269 646Q265 622 214 459Q204 428 185 428Q177 428 171 436T165 457Q165 479 201 645Q209 681 239 681Q255 681 262 669T269 646ZM141 646Q137 622 86 459Q76 428 57 428Q49 428 43 436T37
457Q37 479 73 645Q81 681 111 681Q127 681 134 669T141 646Z" />
<glyph unicode="#" glyph-name="numbersign" horiz-adv-x="520" d="M350 404H440L435 370H345L320 189H410L406 155H315L300 44H247L262 155H165L150 44H97L112 155H22L27 189H117L142 370H52L57 404H147L161 505H214L200 404H297L311 505H364L350 404ZM267 189L292
370H195L170 189H267Z" />
<glyph unicode="$" glyph-name="dollar" horiz-adv-x="450" d="M395 160Q395 108 370 72T314 21T258 1L233 -4V-128H203V-6Q123 -6 82 20T40 85Q40 89 46 97T59 106Q73 106 82 103T98 94T108 80T115 62T122 41L126 34Q129 28 149 22T203 15V257Q174 268 147 281T100
308T68 349T56 413Q56 493 99 540T203 594V651H233V596Q279 596 329 574T380 525Q380 519 373 511T358 503Q335 503 317 517T292 546L285 561L267 566Q249 571 243 571Q236 571 233 570V351Q263 341 292 327T344 297T381 246T395 160ZM203 364V569Q160 562 132
534T103 462Q103 442 110 427T135 399T165 381T203 364ZM348 118Q348 149 337 172T309 206T271 228T233 244V17L262 22Q290 27 319 52T348 118Z" />
<glyph unicode="%" glyph-name="percent" horiz-adv-x="690" d="M664 127Q664 70 622 33T514 -4Q439 -4 396 38T353 147Q353 215 397 260T518 306Q581 306 622 251T664 127ZM334 433Q334 376 292 339T184 302Q109 302 66 344T23 453Q23 521 67 566T188 612Q251
612 292 557T334 433ZM533 635Q479 496 361 303T142 -29L119 -12Q216 114 321 298T435 591Q458 608 496 622L533 635ZM604 112Q604 186 575 233T481 281Q449 281 433 253T417 182Q417 112 447 64T540 16Q569 16 586 44T604 112ZM274 418Q274 492 245 539T151 587Q119
587 103 559T87 488Q87 418 117 370T210 322Q239 322 256 350T274 418Z" />
<glyph unicode="&amp;" glyph-name="ampersand" horiz-adv-x="832" d="M813 93Q813 61 773 25T688 -12Q665 -12 626 2T558 30L529 45L510 32Q490 18 443 5T338 -9Q197 -9 122 56T47 216Q47 256 62 290T97 343T132 372L147 383L129 414Q111 446 111 462Q111 502
161 550T256 598Q286 598 324 581T363 552Q363 538 352 518T334 497L316 510Q297 524 268 537T215 551Q199 551 185 537T170 514Q170 490 210 436T291 339T338 296Q342 296 342 316Q342 364 374 396T481 429Q524 429 585 413T684 397Q721 397 739 411T763 440T771
454Q783 454 783 437Q783 426 778 407T749 363T688 338Q678 338 658 340T626 342T615 337Q615 333 621 311T628 253Q628 208 616 171T592 120L581 105L606 92Q631 80 669 67T733 54Q753 54 771 73T789 106Q789 124 798 124Q813 124 813 93ZM597 251Q597 302 554
343T445 384Q407 384 386 365T364 314Q364 298 365 288T370 269T380 254T395 239T418 220Q459 185 508 153L556 121L566 134Q576 147 586 179T597 251ZM501 61Q402 112 301 201T158 364L146 357Q135 350 124 324T112 258Q112 226 125 191T167 118T251 57T381 32Q410
32 440 39T486 54L501 61Z" />
<glyph unicode="&apos;" glyph-name="quotesingle" horiz-adv-x="176" d="M141 646Q137 622 86 459Q76 428 57 428Q49 428 43 436T37 457Q37 479 73 645Q81 681 111 681Q127 681 134 669T141 646Z" />
<glyph unicode="(" glyph-name="parenleft" horiz-adv-x="370" d="M328 -131T328 -143T320 -155T286 -140T223 -89T150 -5T91 121T66 286Q66 372 90 448T150 573T222 658T286 709T320 725T328 713T315 694Q160 604 160 284Q160 143 199 32T315 -124Q328 -131 328 -143Z" />
<glyph unicode=")" glyph-name="parenright" horiz-adv-x="370" d="M305 286Q305 199 281 122T221 -4T149 -88T85 -139T51 -155T43 -143T56 -124Q133 -79 172 32T211 284Q211 604 56 694Q43 701 43 713T51 725T85 710T148 658T221 574T280 449T305 286Z" />
<glyph unicode="*" glyph-name="asterisk" horiz-adv-x="390" d="M355 563Q355 555 347 546T323 536T268 544T215 552L280 459Q286 450 286 444Q286 423 262 423Q244 423 235 438T216 487T195 542L147 439Q139 422 128 422Q119 422 111 429T103 452Q103 466 137
506T177 554L120 548Q63 543 61 543Q46 543 41 548T36 566Q36 575 43 583T68 592Q81 592 121 584T175 576L115 662Q103 679 103 685Q103 693 111 699T126 705Q141 705 148 698T164 670Q166 665 177 632T195 586L244 692Q252 706 261 706Q271 706 279 698T287 675Q287
662 254 625T214 574L270 580Q325 585 330 585Q355 585 355 563Z" />
<glyph unicode="+" glyph-name="plus" horiz-adv-x="435" d="M377 332V277H242V142H187V277H53V332H187V466H242V332H377Z" />
<glyph unicode="," glyph-name="comma" horiz-adv-x="230" d="M183 -8Q183 -58 159 -94T122 -131Q118 -131 114 -127T109 -119Q109 -118 118 -108T136 -79T145 -40Q145 -27 133 -14T107 0Q89 0 75 11T62 40Q63 54 75 63T104 72Q138 72 160 47T183 -8Z" />
<glyph unicode="-" glyph-name="hyphen" horiz-adv-x="286" d="M260 238Q260 227 255 222T236 211L63 135Q55 131 51 131Q42 131 36 137T30 152Q30 159 32 163T37 169T45 173L220 248Q239 256 245 256Q260 256 260 238Z" />
<glyph unicode="." glyph-name="period" horiz-adv-x="235" d="M156 30Q156 11 143 -1T109 -14T76 -2T62 30T75 62T109 75T142 63T156 30Z" />
<glyph unicode="/" glyph-name="slash" horiz-adv-x="366" d="M285 672L327 660L69 -53L26 -41L285 672Z" />
<glyph unicode="0" glyph-name="zero" horiz-adv-x="583" d="M530 253Q530 123 457 58T276 -8Q182 -8 111 74T40 293Q40 454 110 531T300 608Q396 608 463 522T530 253ZM450 223Q450 581 263 581Q192 581 159 519T126 324Q126 19 314 19Q373 19 411 69T450 223Z" />
<glyph unicode="1" glyph-name="one" horiz-adv-x="333" d="M293 11Q293 1 289 -2T266 -5Q261 -5 216 -3T152 0Q132 0 92 -2T47 -5Q30 -5 26 -3T22 11Q22 20 26 23T47 26Q114 26 114 41V490Q114 538 99 549T38 560Q26 560 23 563T20 574Q20 587 36 587Q105 587
131 593Q136 594 150 599T176 607T195 611Q205 611 205 592Q205 590 204 559T202 478T200 321T199 75Q199 41 212 34T266 26Q284 26 288 23T293 11Z" />
<glyph unicode="2" glyph-name="two" horiz-adv-x="436" d="M410 90Q410 72 396 33T370 -7Q369 -7 352 -5T268 -2T82 0Q67 0 40 -2T8 -5Q2 -5 -5 -1T-12 8T22 37T73 75Q272 241 272 410Q272 466 239 511T131 556Q101 556 77 547T40 527T18 506T4 497Q-8 497 -8
508Q-8 515 13 538T87 586T202 611Q278 611 318 567T358 470Q358 405 321 332T240 210T158 123T121 83Q121 71 236 71Q296 71 335 81T389 102T407 112Q410 112 410 90Z" />
<glyph unicode="3" glyph-name="three" horiz-adv-x="379" d="M353 168Q353 109 313 66T221 4T120 -14Q54 -14 24 -2T-7 23Q-7 32 8 32Q10 32 20 26T52 13T101 6Q166 6 216 44T266 159Q266 196 251 224T214 266T174 286T142 294Q132 295 126 303T119 319Q119 332
135 338Q168 350 196 382T224 467Q224 572 134 572Q96 572 71 562T36 543T24 533Q10 533 10 545Q10 560 65 588T188 616Q246 616 282 584T319 499Q319 463 286 424T220 362L187 341Q187 340 213 329T270 302T327 249T353 168Z" />
<glyph unicode="4" glyph-name="four" horiz-adv-x="465" d="M445 244Q445 237 430 204Q428 199 426 189T420 174T411 168T395 169T374 170Q352 170 347 165T341 133Q341 82 343 49T347 6T351 -10T353 -19Q353 -35 320 -43T270 -52Q264 -52 258 -45T251 -33Q251
-31 253 52T255 145Q255 160 251 165T237 170H35Q23 168 4 169T-15 181Q-15 188 -1 207T59 283T146 397Q324 635 348 635Q354 635 354 613Q354 600 352 554T349 498L341 251Q341 243 347 242T381 240Q406 240 422 246T440 252Q445 252 445 244ZM264 448Q264 497
257 497Q253 497 163 380T73 251Q73 243 94 242T221 240Q225 240 233 240Q251 239 254 246T260 294Q260 296 260 297Q264 389 264 448Z" />
<glyph unicode="5" glyph-name="five" horiz-adv-x="428" d="M403 591Q403 579 376 551T317 522Q279 522 190 536T98 551Q90 551 67 426L96 430Q124 434 170 434Q208 434 244 422T311 384T362 313T381 208Q381 108 302 45T119 -19Q67 -19 25 -2T-18 28Q-18 33
-13 37T-3 41Q-1 41 12 34T56 19T133 11Q202 11 251 58T300 188Q300 276 250 322T133 369Q109 369 92 368T69 365T58 363T51 361Q38 361 38 386Q38 389 59 494T81 617L172 606Q263 594 296 594Q341 594 364 598T394 602Q403 602 403 591Z" />
<glyph unicode="6" glyph-name="six" horiz-adv-x="523" d="M478 188Q478 97 414 42T249 -14Q162 -14 103 49T43 238Q43 386 142 502Q181 548 251 584T414 621Q427 621 427 612Q427 594 416 594Q412 594 402 594T388 595Q298 594 237 531T148 357L164 370Q179
382 215 394T293 406Q320 406 348 396T408 364T458 296T478 188ZM401 159Q401 262 355 312T232 363Q192 363 169 343T139 300T133 251Q133 127 179 70T292 13Q338 13 369 53T401 159Z" />
<glyph unicode="7" glyph-name="seven" horiz-adv-x="347" d="M368 604T368 595T305 482T206 307Q140 179 140 32Q140 22 141 4T143 -21Q143 -30 136 -38T122 -47Q109 -47 85 -31T61 13Q61 57 97 148T176 318Q225 406 261 457T298 510Q298 515 280 515Q279 515
246 511T187 507Q118 507 41 516T-36 532T-17 576T11 614Q13 614 42 609T127 599T245 594Q278 594 314 599T356 604Q368 604 368 595Z" />
<glyph unicode="8" glyph-name="eight" horiz-adv-x="450" d="M398 169Q398 89 348 39T216 -11Q127 -11 84 32T40 152Q40 187 54 216T85 259T116 284T130 296T118 307T92 330T66 376T54 449Q54 523 98 568T218 613Q288 613 332 579T377 486Q377 451 363 422T331
379T300 355T285 342T296 335T325 319T358 291T386 242T398 169ZM326 468Q326 525 295 557T198 590Q157 590 130 560T102 488Q102 442 143 411T254 352Q295 375 310 397T326 468ZM345 136Q345 159 333 178T298 213T254 239T201 262T154 283Q85 241 85 168Q85 100
123 58T230 16Q289 16 317 45T345 136Z" />
<glyph unicode="9" glyph-name="nine" horiz-adv-x="513" d="M458 368Q458 261 430 183T352 61T243 -3T114 -23Q100 -23 100 -15Q100 4 114 4Q331 4 367 257L354 242Q341 226 306 210T227 194Q150 194 92 248T34 404Q34 500 98 556T250 613Q279 613 312 600T380
559T436 482T458 368ZM374 337Q374 460 323 518T206 577Q164 577 135 538T106 437Q106 331 156 283T287 235Q317 235 345 268T374 337Z" />
<glyph unicode=":" glyph-name="colon" horiz-adv-x="249" d="M167 370T167 351T154 320T121 307Q101 307 88 319T74 351T87 383T121 396Q140 396 153 383ZM167 51T167 32T154 1T121 -12Q101 -12 88 0T74 31T87 63T120 76T153 64Z" />
<glyph unicode=";" glyph-name="semicolon" horiz-adv-x="249" d="M167 386T167 367T154 336T121 323Q101 323 88 335T74 367T87 399T121 412Q140 412 153 399ZM190 -8Q190 -66 166 -98T129 -131T116 -119Q116 -117 125 -107T143 -78T152 -40Q152 -27 140 -14T114
0Q96 0 82 11T69 40Q70 54 82 63T111 72Q145 72 167 47T190 -8Z" />
<glyph unicode="&lt;" glyph-name="less" horiz-adv-x="450" d="M203 302L341 109L319 90L103 304L316 516L341 497L203 302Z" />
<glyph unicode="=" glyph-name="equal" horiz-adv-x="435" d="M378 409V354H54V409H378ZM378 257V202H54V257H378Z" />
<glyph unicode="&gt;" glyph-name="greater" horiz-adv-x="450" d="M129 516L343 304L127 90L105 109L243 302L105 497L129 516Z" />
<glyph unicode="?" glyph-name="question" horiz-adv-x="381" d="M305 436Q305 391 285 353T240 295T196 259T175 236Q175 218 196 200T218 171Q218 162 194 146T159 130Q147 130 129 156T110 198Q110 212 162 262Q232 328 232 405Q232 448 218 478T178 521T131
540T84 546Q56 546 56 557Q56 574 70 583T104 592Q186 592 245 552T305 436ZM226 33Q226 14 213 2T179 -11T145 1T131 33T145 65T179 78T212 66T226 33Z" />
<glyph unicode="@" glyph-name="at" horiz-adv-x="770" d="M706 351Q706 269 645 205T489 140Q473 140 458 144T427 166T411 216Q411 233 415 252L398 227Q381 202 352 177T297 152Q259 152 234 180T208 246Q208 323 266 393T413 464Q418 464 428 463T442 462Q461
461 483 467T508 473Q517 473 517 466Q517 462 508 421T489 323T479 220Q479 170 523 170Q571 170 602 226T633 356Q633 381 623 411T589 475T518 531T407 554Q277 554 201 479T125 278Q125 176 195 110T397 44Q457 44 511 68T566 106L596 86Q626 67 640 67L619
54Q598 42 535 29T386 16Q217 16 135 87T52 271Q52 406 152 492T408 578Q480 578 539 556T633 500T687 427T706 351ZM441 423L438 428Q435 432 425 437T398 442Q351 442 322 382T292 271Q292 259 292 253T296 236T307 221T329 216Q367 216 398 273T441 423Z" />
<glyph unicode="A" glyph-name="A" horiz-adv-x="607" d="M626 10Q626 -2 611 -2Q605 -2 555 -1T484 0Q472 0 449 -1T386 -3Q375 -3 375 10Q375 19 380 21T408 24T435 26T440 38L393 178Q387 197 383 201T369 206H153Q147 206 144 205T138 197T130 177L112 122Q95
68 95 50Q95 34 101 30T133 26Q160 26 167 23T175 10Q175 -3 161 -3Q148 -3 122 -1T77 1Q65 1 37 0T-4 -1Q-19 -1 -19 9Q-19 20 -13 23T11 26Q36 26 52 65L275 602Q282 619 311 634T350 649Q359 649 359 642Q359 638 354 627T349 596Q349 588 370 527T424 373T464
263Q490 189 505 148T542 66T578 25Q608 25 617 22T626 10ZM362 260Q362 266 359 275L293 467Q276 519 270 519Q268 519 266 514T261 503T254 485T246 467L169 278Q163 264 163 259Q163 253 176 253H350Q362 253 362 260Z" />
<glyph unicode="B" glyph-name="B" horiz-adv-x="569" d="M533 155Q533 74 475 32T319 -10Q298 -10 231 -5T142 0T91 -2T46 -4Q29 -4 29 7Q29 16 34 18T57 21Q90 21 97 23T104 38V493Q104 548 94 564T60 581Q27 581 19 583T11 593T14 603T31 605Q46 605 78 605T128
604Q130 604 206 607T336 610Q424 610 464 568T504 472Q504 443 496 419T471 378T447 354T422 337Q413 331 404 326T391 319T387 315T392 312T407 306T425 298Q437 293 449 286T474 271T496 253T515 229T528 197T533 155ZM404 440Q404 488 370 536T271 585Q225
585 215 579T204 556V343Q204 334 210 332T241 329Q282 329 316 324L349 318Q355 323 361 327T372 336T383 348T391 363T398 382T402 407T404 440ZM421 147Q421 217 371 261T240 306Q221 306 213 301T204 280V101Q204 42 216 29Q231 13 289 13Q421 13 421 147Z"
/>
<glyph unicode="C" glyph-name="C" horiz-adv-x="687" d="M635 86Q635 81 617 67T565 34T472 1T342 -13Q201 -13 119 60T36 278Q36 432 147 525T463 618Q498 618 530 614T581 607T605 603Q608 603 613 599T618 592T615 564T612 514Q612 506 602 506Q596 506 591
524Q586 550 536 570T409 590Q280 590 209 509T138 289Q138 166 208 91T398 15Q477 15 531 49T591 111Q599 145 607 145Q608 145 609 142T612 134T616 124Q619 119 627 104T635 86Z" />
<glyph unicode="D" glyph-name="D" horiz-adv-x="685" d="M647 297Q647 235 629 182T572 84T468 15T315 -10Q289 -10 230 -6T143 -1Q122 -1 91 -2T40 -3Q29 -3 27 -1T24 11T32 22T76 25Q104 25 104 41V545Q104 569 98 575T72 581Q34 581 26 583T18 596Q18 606
23 608T47 610Q60 610 94 608T142 606Q152 606 237 607T343 609Q479 609 563 524T647 297ZM554 243Q554 289 546 333T518 422T465 500T381 555T261 577Q223 577 214 572T204 544V113Q204 77 206 62T218 33T249 17T309 14Q393 14 433 28T502 70Q554 121 554 243Z"
/>
<glyph unicode="E" glyph-name="E" horiz-adv-x="539" d="M541 78L514 27Q511 22 508 13T501 -1T494 -5T425 -4T331 -3H47Q27 -3 27 12T65 27Q93 27 98 31T104 54V521Q104 561 98 570T59 579Q37 579 28 580T16 584T14 591Q14 601 18 604T38 607H320Q371 607 410
608T467 611T495 614T507 616Q514 616 514 607Q514 602 507 579T499 547Q499 528 489 528Q482 528 475 546Q462 576 301 576Q231 576 218 574T204 559V353Q204 337 219 337H412Q430 337 433 343T437 381Q437 398 440 402T454 407Q461 407 461 392Q461 386 460 359T458
317Q458 294 459 266T461 232Q461 214 454 214T444 216T438 233T435 278Q435 293 430 296T401 300H220Q204 300 204 285V72Q204 42 215 34T256 25Q336 25 395 34T477 53T517 73T537 82T541 78Z" />
<glyph unicode="F" glyph-name="F" horiz-adv-x="534" d="M524 610Q524 609 515 561Q515 558 514 551T513 538T510 529T504 525Q496 525 490 537T481 550Q476 554 471 557T461 563T448 568T430 571T403 574T364 575T310 576Q238 576 221 574T204 559V355Q204 345
207 342T219 338H410Q432 338 436 342T440 368Q440 409 457 409Q469 409 469 389Q469 383 468 354T466 308Q466 286 467 263T469 233Q469 212 457 212Q440 212 440 271Q440 291 436 295T411 300H217Q204 300 204 285V116Q204 73 211 51T225 26T241 23Q293 23 310
22T327 12Q327 3 319 0T285 -4Q259 -4 207 -4T135 -3Q122 -3 103 -3T68 -4Q49 -4 43 -1T37 12Q37 25 53 25Q88 25 96 31T104 54V498Q104 580 74 580Q19 580 19 593Q19 610 33 610H420Q438 610 476 613T519 617T524 610Z" />
<glyph unicode="G" glyph-name="G" horiz-adv-x="716" d="M702 264Q702 258 701 256T695 252T684 251T664 251Q636 251 631 244T626 195V124Q626 103 627 88T628 66T629 56Q629 51 627 49T614 45Q605 43 560 28T467 2T369 -9Q205 -9 121 60T36 269Q36 436 148
524T452 613Q493 613 557 605T631 597Q638 597 638 592Q638 591 626 528Q625 523 624 510T622 489T616 482Q595 482 595 511Q595 536 544 558T404 581Q281 581 211 502T140 296Q140 173 202 96T401 18Q443 18 482 32T522 65V209Q522 240 514 247T473 254Q447 254
433 254T414 256T409 263Q409 270 409 273T413 279T422 281Q430 281 476 279T550 277Q574 277 622 277T675 278Q693 278 697 275T702 264Z" />
<glyph unicode="H" glyph-name="H" horiz-adv-x="743" d="M727 15Q727 4 725 1T710 -3Q693 -3 649 -2T584 0Q566 0 529 -1T475 -3Q462 -3 462 15Q462 21 467 23T498 25Q524 25 531 27T539 41V287Q539 299 536 302T519 306H223Q210 306 207 303T204 286V88Q204
49 215 37T253 25Q268 25 277 25T291 24T298 21T300 13Q300 -3 284 -3Q265 -3 212 -2T135 0Q119 0 90 -1T45 -3Q38 -3 35 0T32 15Q32 22 37 23T68 25Q104 25 104 41V533Q104 554 98 564T83 577T58 580Q34 580 28 582T22 593Q22 609 35 609Q42 609 74 607T133 605Q157
605 210 607T271 609Q286 609 286 594Q286 584 281 582T248 580Q204 580 204 565V365Q204 352 207 349T223 345H518Q534 345 536 347T539 365V518Q539 581 510 581Q497 581 488 581T472 581T462 582T456 584T454 587T453 593Q453 607 465 607Q473 607 510 606T574
604Q598 604 648 605T706 607Q721 607 721 593Q721 584 716 583T683 581Q639 581 639 566V102Q639 52 648 39T680 25Q691 25 699 25T712 25T721 23T725 20T727 15Z" />
<glyph unicode="I" glyph-name="I" horiz-adv-x="308" d="M280 14Q280 -3 260 -3Q242 -3 201 -2T139 0Q121 0 96 -1T53 -3Q41 -3 38 0T35 14Q35 25 67 25Q93 25 98 27T104 41V389Q104 481 101 522T94 571T78 579Q75 579 70 579Q37 579 29 581T21 594Q21 601 24
604T39 607Q47 607 74 607T128 606Q152 606 190 607T235 609Q267 609 267 598T262 585T241 582Q216 582 210 577T204 549V228Q204 155 205 111T211 50T218 29T227 25Q280 25 280 14Z" />
<glyph unicode="J" glyph-name="J" horiz-adv-x="307" d="M280 591Q280 581 273 578T238 575Q214 575 209 567T204 532V-10Q204 -59 194 -98T163 -163T128 -203T92 -232Q40 -268 -45 -268Q-86 -268 -113 -251T-140 -215Q-140 -186 -100 -186Q-80 -186 -55 -201T-16
-242Q40 -242 72 -198T104 -26V524Q104 556 91 565T58 574Q27 574 19 577T10 591Q10 601 17 604T43 607Q51 607 80 606T136 604Q160 604 207 605T261 606Q280 606 280 591Z" />
<glyph unicode="K" glyph-name="K" horiz-adv-x="642" d="M680 11Q680 -2 641 -2Q620 -2 586 -1T532 1Q526 1 519 0T507 -1Q497 -1 481 16T434 74T378 144Q263 274 247 274Q244 274 242 273T234 265T225 256Q204 238 204 212V127Q204 22 227 22Q275 22 285 20T295
6Q295 0 290 -1T266 -3Q248 -3 205 -1T140 1Q122 1 96 1T52 0Q40 0 37 2T34 12Q34 21 39 23T68 25Q92 25 98 29T104 51V446Q104 475 98 528T84 581Q40 581 28 584T16 597Q16 604 19 606T34 608Q42 608 72 607T130 605Q154 605 201 606T255 608Q273 608 273 595Q273
581 239 581Q214 581 209 575T204 541V295Q204 277 210 277Q214 277 234 296L465 522Q493 550 493 570Q493 582 481 583T448 583Q432 583 429 585T426 597Q426 606 434 607Q439 608 446 608Q456 608 481 607T530 605Q550 605 570 606T597 608Q615 608 619 606T624
594Q624 586 620 584T600 581Q576 581 557 568T484 502L402 426Q319 349 319 344Q319 342 364 297T452 203Q473 179 501 144T549 88T582 52Q615 22 655 22Q680 22 680 11Z" />
<glyph unicode="L" glyph-name="L" horiz-adv-x="523" d="M532 65Q532 62 523 48T510 27Q509 24 505 10T496 -5Q493 -5 349 -4T129 -2Q112 -2 85 -3T47 -4Q28 -4 28 7Q28 17 35 20T67 23Q94 23 99 29T104 65Q104 129 105 265T106 445Q106 515 102 547T84 580Q45
580 37 582T28 595Q28 607 48 607Q71 607 97 607T140 606Q162 606 213 606T279 607Q302 607 307 605T313 595Q313 584 306 582T264 580Q237 580 224 578T209 572T206 561Q206 432 205 296T204 153Q204 85 211 54T239 23H322Q388 23 435 35T502 59T525 71Q532 71
532 65Z" />
<glyph unicode="M" glyph-name="M" horiz-adv-x="768" d="M757 9Q757 -3 722 -3H525Q501 -3 501 9Q501 23 535 23Q559 23 565 29T571 58Q571 143 569 237T564 390L562 449Q562 470 555 470T529 414Q406 77 389 16Q379 -17 369 -17Q365 -17 363 -14T360 -5T357
4L158 410Q144 439 138 439Q134 439 131 408Q129 388 125 288T120 171Q120 73 128 50T177 23Q199 21 205 19T211 7Q211 -3 183 -3H52Q27 -3 27 9Q27 17 31 20T52 23Q83 23 89 33T95 92Q95 153 98 238T105 384T109 449Q109 527 86 554T34 582Q16 582 16 599Q16 605
24 606T70 607Q91 607 128 606T172 604Q176 604 179 597T187 578T194 560Q268 400 378 190Q398 151 402 151Q409 151 422 186Q451 265 475 333T514 443T539 517T555 565T563 591T568 603T572 605Q580 605 610 604T647 603Q656 603 677 604T711 605Q736 605 736
598Q736 581 685 581Q662 581 662 557Q664 557 664 227Q664 169 667 128T673 67T684 37T695 25T706 23Q757 23 757 9Z" />
<glyph unicode="N" glyph-name="N" horiz-adv-x="691" d="M665 600Q665 599 665 597Q665 587 661 585T636 582Q600 582 593 576T585 542V132Q585 109 587 58T589 -2Q589 -17 581 -17Q578 -17 575 -15T565 -5T550 13T525 44L180 473Q147 516 140 516Q137 516 135
469Q129 325 129 180Q129 87 136 56T167 23Q201 20 210 18T219 9Q219 2 216 1T197 0Q193 0 191 0Q183 0 159 1T116 3Q107 3 86 2T53 0Q34 0 31 1T28 10Q28 17 33 20T60 23Q88 23 94 29T100 62Q100 163 101 247T105 373T108 443T110 473Q110 512 106 534T91 566T69
578T35 580Q19 580 19 599Q19 607 48 607Q58 607 78 606T107 605T145 606T182 607Q195 607 204 600T238 560Q486 246 532 198Q551 177 555 177T559 201Q559 477 553 515Q551 523 551 532T547 550T539 566T525 577T503 582Q480 582 470 584T459 589T458 600Q458
607 462 608T481 610T522 609T562 607T604 608T645 610Q659 610 662 609T665 600Z" />
<glyph unicode="O" glyph-name="O" horiz-adv-x="701" d="M665 315Q665 153 577 72T348 -10Q259 -10 201 10T102 74Q36 146 36 294Q36 446 133 539Q179 583 232 600T376 618Q457 618 511 591Q574 559 619 488T665 315ZM562 279Q562 320 557 358T535 440T494 516T426
569T327 590Q225 590 165 503Q143 471 135 433T127 323Q127 203 167 138Q200 85 253 50T357 14Q425 14 477 50Q519 78 540 139T562 279Z" />
<glyph unicode="P" glyph-name="P" horiz-adv-x="568" d="M531 427Q531 349 472 306T329 262Q294 262 266 264T224 270L210 272Q204 272 204 260V120Q204 60 209 43T236 26Q286 26 297 24T308 12Q308 0 278 0Q261 0 211 1T140 3Q122 3 98 2T56 0Q40 0 36 2T31
11T38 20T74 23Q94 23 99 25T104 39V452Q104 584 78 584Q37 584 28 586T18 595Q18 603 21 605T35 607Q61 607 81 607T124 608Q129 608 163 609T245 612T336 614Q418 614 474 565T531 427ZM431 419Q431 500 379 543T255 587Q234 587 226 586T211 578T204 556V305Q204
298 230 293T291 287Q366 287 398 324T431 419Z" />
<glyph unicode="Q" glyph-name="Q" horiz-adv-x="734" d="M746 -179Q746 -188 687 -200T603 -213Q576 -213 549 -202T510 -182T471 -153Q391 -90 336 -30Q328 -21 321 -19T282 -11Q163 8 115 58Q36 141 36 284Q36 388 79 460T189 568Q198 572 206 578T231 590T266
601T315 609T381 612Q494 612 565 559Q616 522 652 455T688 327Q688 252 670 193T620 99T563 44T507 13Q469 -1 453 -8T436 -19Q436 -29 486 -65T604 -135T709 -169Q712 -169 720 -168T734 -167T742 -171T746 -179ZM585 291Q585 366 559 431T476 541T341 585Q268
585 219 548Q183 521 159 461T134 322Q134 218 165 155Q200 84 257 45T378 5Q468 5 526 81T585 291Z" />
<glyph unicode="R" glyph-name="R" horiz-adv-x="637" d="M662 2Q662 -6 630 -6Q629 -6 602 -5T560 -3Q549 -3 527 -4T489 -5Q479 -5 460 19T421 71Q367 140 336 193T298 260T283 274Q269 274 246 274T219 275Q209 275 206 274T203 266L204 49Q204 30 212 27T257
23Q284 23 290 20T297 8Q297 0 296 0T283 0Q266 0 214 1T140 3Q122 3 94 2T48 0Q47 0 44 0Q35 0 35 6Q35 15 41 19T66 23Q81 23 87 23T99 27T104 39V540Q104 568 97 574T66 581Q54 581 48 581T38 581T33 585T32 593Q32 602 35 604T51 607Q58 607 80 606T130 604Q151
604 213 605T296 607Q395 607 459 569T523 455Q523 329 411 293Q383 284 383 280Q383 264 429 205T516 104Q537 81 576 50T631 19Q651 19 656 16T662 2ZM430 429Q430 460 411 496T372 547Q353 560 318 571T250 582Q222 582 213 577T203 556V308Q203 299 269 299Q430
299 430 429Z" />
<glyph unicode="S" glyph-name="S" horiz-adv-x="448" d="M411 170Q411 95 358 43T204 -10Q133 -10 83 9T32 45Q32 74 30 99T27 139T25 158Q25 165 29 173T38 181Q46 181 52 163T64 124T70 101L76 90Q82 78 86 71T103 52T128 32T162 18T209 12Q252 12 283 24T330
57T351 96T358 134Q358 169 325 195T198 255Q119 284 83 326T47 435Q47 516 111 565T269 614Q314 614 343 608T373 594Q373 593 379 558T385 518Q385 499 381 499Q368 499 360 517Q359 518 358 524T353 536T345 547Q310 577 234 577Q166 577 132 547T98 479Q98
435 125 410T243 351Q270 341 280 337T313 323T346 304T371 282T393 253T405 217T411 170Z" />
<glyph unicode="T" glyph-name="T" horiz-adv-x="565" d="M567 597Q567 594 561 571T555 531Q555 521 545 521T530 536Q525 556 492 565T362 575Q339 575 335 571T330 549V49Q330 32 342 28T380 23Q413 23 420 21T427 8Q427 3 424 2T406 0Q389 0 345 1T279 3Q261
3 220 2T162 0Q150 0 147 2T144 10Q144 19 149 21T180 23T217 27T228 48V542Q228 564 221 568T184 573Q119 573 68 560T6 528Q-3 513 -12 513Q-19 513 -19 523L-6 578Q-3 591 0 600T7 610Q18 610 87 609T279 607Q367 607 429 608T520 610T554 611T563 607T567 597Z"
/>
<glyph unicode="U" glyph-name="U" horiz-adv-x="704" d="M677 596Q677 590 676 587T668 582T647 579Q619 579 610 565T600 490Q600 474 600 394T599 240Q599 135 581 91T517 19Q460 -15 350 -15Q230 -15 167 34T104 206V520Q104 581 71 581Q37 581 29 583T21
595Q21 607 43 607Q51 607 77 607T130 606Q154 606 204 606T262 607Q277 607 277 593Q277 585 271 583T239 581Q215 581 210 574T204 542V188Q204 154 210 127T234 73T289 30T381 15Q456 15 496 38Q528 56 542 76T563 132T569 241Q569 362 567 433T558 534T547
572T529 579Q479 579 479 596Q479 603 483 604T513 605Q520 605 549 605T595 604Q609 604 624 604T644 605Q669 605 673 604T677 596Z" />
<glyph unicode="V" glyph-name="V" horiz-adv-x="547" d="M566 608T566 597T563 584T551 581Q534 581 527 573T503 525L293 27Q291 21 286 7T278 -12T270 -18Q264 -18 261 -14T255 1T248 29Q247 34 208 122T134 298L41 533Q21 581 -4 581Q-20 581 -24 583T-28
595Q-28 603 -23 605T2 608Q10 608 38 606T83 604Q101 604 133 606T173 608Q192 608 197 606T202 596Q202 586 196 584T165 581Q134 581 134 565Q134 561 194 416T291 175Q304 140 309 140Q316 140 329 173Q463 520 463 554Q463 581 425 581Q402 581 396 583T390
595Q390 600 391 602T399 605T420 607Q426 607 456 606T496 604Q508 604 520 606T540 608Q566 608 566 597Z" />
<glyph unicode="W" glyph-name="W" horiz-adv-x="776" d="M779 595Q779 587 776 584T765 581Q751 583 744 582T731 565L534 15Q533 13 531 4T527 -8T521 -12Q519 -12 517 -10T514 -4T512 7T509 19Q508 21 475 122T425 277Q394 376 382 376Q374 376 349 298Q301
152 245 15Q244 11 241 2T236 -11T230 -16T221 4Q203 73 124 301Q85 414 68 463T36 542T17 576T1 579Q-18 579 -22 581T-26 595Q-26 604 -22 606T1 609Q8 609 31 608T71 606Q89 606 127 607T173 608Q193 608 197 606T202 593Q202 584 196 582T165 579Q142 579 142
567Q142 557 147 542L256 226Q270 183 278 183Q282 183 302 237Q368 426 368 439Q368 455 361 474Q333 549 324 564T295 579Q275 579 270 583T264 595T268 605T295 607Q315 607 347 606T393 605Q416 605 446 606T483 607Q501 607 506 604T512 592Q512 584 505 582T475
579Q445 579 445 566Q445 554 451 538Q468 487 541 243Q557 190 565 190Q571 190 585 231Q592 251 603 283T624 345Q680 535 680 561Q680 572 678 575T669 579T651 579Q628 579 622 581T616 594Q616 603 621 605T649 607Q655 607 677 606T709 605Q721 605 738 607T764
609Q779 609 779 595Z" />
<glyph unicode="X" glyph-name="X" horiz-adv-x="613" d="M635 9Q635 1 629 -1T599 -3Q591 -3 560 -2T513 0Q494 0 446 -1T390 -2Q370 -2 366 -1T361 9Q361 15 363 18T373 23T398 25Q421 25 421 37Q421 48 410 65L288 253Q285 257 281 257Q275 257 267 247Q214
187 169 130T123 46Q123 33 134 29T181 25Q203 25 209 22T216 9Q216 3 211 1T187 -2Q181 -2 133 0T74 3Q62 3 37 1T4 -2Q-12 -2 -16 0T-20 9Q-20 20 -16 23T4 27Q46 27 56 49Q61 60 91 94T173 185T253 273Q261 283 261 289Q261 294 255 303L105 533Q74 581 24 581Q7
581 3 583T-1 595Q-1 603 5 606T34 609Q42 609 78 607T130 604Q149 604 200 606T259 608Q274 608 274 594Q274 586 268 583T240 580Q211 580 211 564Q211 552 220 538L322 384L327 377Q332 370 335 370T342 375Q344 379 345 380Q396 446 420 483T449 533T453 561Q453
580 417 580Q393 580 388 582T382 596Q382 601 383 603T390 606T411 608Q417 608 443 606T479 603Q490 603 517 604T552 606Q569 606 573 604T577 594Q577 584 573 582T553 579Q529 579 519 571T489 521Q480 502 358 355Q351 346 351 343Q351 338 354 334L529 69Q558
25 599 25Q621 25 628 22T635 9Z" />
<glyph unicode="Y" glyph-name="Y" horiz-adv-x="534" d="M549 594Q549 585 545 582T524 579Q514 579 504 569T463 509T360 344Q332 299 327 286T322 247V136Q322 25 349 25Q403 25 413 23T424 11Q424 -3 403 -3Q386 -3 350 -2T292 -1Q274 -1 224 -2T157 -3Q145
-3 142 -1T138 12Q138 20 144 22T175 25Q207 25 214 30T222 56V241Q222 255 206 284Q194 307 146 391T66 530Q55 550 44 561T26 575T11 579T-1 579Q-14 579 -18 582T-22 597Q-22 604 -16 605T15 607Q23 607 51 606T95 605Q114 605 151 606T196 607Q215 607 220
604T225 593Q225 579 189 579Q169 579 169 565Q169 553 180 533L273 373Q304 320 311 320Q314 320 338 357T386 438Q432 524 432 567Q432 579 405 579Q385 579 379 581T373 594Q373 607 399 607Q405 607 430 606T466 605Q478 605 496 606T523 607Q541 607 545 605T549
594Z" />
<glyph unicode="Z" glyph-name="Z" horiz-adv-x="552" d="M553 147Q553 138 534 92T505 4Q503 -9 463 -9Q432 -9 332 -2T186 5Q134 5 100 3T55 -1T37 -5T24 -7Q9 -7 9 4Q9 11 17 22T41 51T65 78Q130 160 207 257T320 398T380 476T406 515Q406 530 392 530Q386
530 345 527T269 524H105Q58 524 39 508T12 492Q3 492 3 505Q3 509 9 520T26 548T38 567Q46 584 55 599T79 614Q82 614 84 613T93 610T116 607T172 604T270 603Q347 603 398 604T466 607T491 610T502 612Q515 612 515 595Q515 587 492 558T440 497L125 105Q112
88 112 79Q112 71 124 71Q125 71 176 76T266 81Q294 81 348 78T426 75Q497 75 528 139Q529 140 530 142Q537 157 545 157T553 147Z" />
<glyph unicode="[" glyph-name="bracketleft" horiz-adv-x="370" d="M317 -116Q317 -127 300 -127H126Q110 -127 107 -124T104 -105V700Q104 713 106 715T124 718H300Q316 718 316 707Q316 694 300 694H209Q187 694 183 692T179 677V-78Q179 -95 185 -98T219 -102H300Q317
-102 317 -116Z" />
<glyph unicode="\" glyph-name="backslash" horiz-adv-x="366" d="M68 672L327 -41L285 -53L26 660L68 672Z" />
<glyph unicode="]" glyph-name="bracketright" horiz-adv-x="370" d="M267 700V-105Q267 -121 264 -124T245 -127H71Q53 -127 53 -116Q53 -102 70 -102H151Q180 -102 186 -99T192 -79V677Q192 689 188 691T162 694H71Q54 694 54 706T70 718H246Q261 718 264 716T267 700Z" />
<glyph unicode="^" glyph-name="asciicircum" horiz-adv-x="278" d="M273 485L264 476Q254 468 252 468L140 526L96 504Q51 482 27 468L6 485Q12 493 72 542T139 592Q146 592 206 543T273 485Z" />
<glyph unicode="_" glyph-name="underscore" horiz-adv-x="475" d="M475 -15V-55H0V-15H475Z" />
<glyph unicode="`" glyph-name="grave" horiz-adv-x="264" d="M177 484L156 464Q62 525 16 546Q21 556 36 573T58 591Q70 591 124 538L177 484Z" />
<glyph unicode="a" glyph-name="a" horiz-adv-x="453" d="M439 39Q439 32 407 8T358 -16Q339 -16 309 17Q303 24 293 40T278 57Q277 57 265 46T235 22T187 -2T121 -13Q81 -13 62 5T42 51Q42 76 48 95T62 124T79 146Q113 191 242 226Q252 227 261 230T271 242V312Q271
372 197 372Q176 372 160 367T136 358L130 353Q130 313 116 293T87 273Q69 273 69 297Q69 325 111 367T227 409Q295 409 326 382T358 308V132Q358 84 388 64Q406 52 422 47T439 39ZM271 89V194Q271 209 259 209Q245 209 203 193T140 152Q122 131 122 84Q122 41
190 41Q217 41 244 57T271 89Z" />
<glyph unicode="b" glyph-name="b" horiz-adv-x="547" d="M519 192Q519 103 456 42Q402 -12 314 -12Q276 -12 238 -3T175 15T149 24Q129 24 117 -23Q113 -34 105 -33Q96 -33 96 -23Q96 -20 97 20T99 114V593Q99 636 91 643T41 651Q28 651 26 653T23 664Q23 665
23 666Q23 671 23 673T27 676T39 678Q86 678 131 690T186 702Q195 702 195 692Q195 691 192 667T187 615L182 373Q182 345 192 345Q193 345 249 377T335 409Q419 409 469 345T519 192ZM448 185Q448 245 404 296T301 348Q260 348 221 333T182 305V65Q182 42 218
27T300 12Q331 12 364 27T416 63Q448 99 448 185Z" />
<glyph unicode="c" glyph-name="c" horiz-adv-x="407" d="M398 68Q398 63 378 43T318 3T236 -18Q131 -18 67 52Q26 97 26 176Q26 290 77 350T224 411Q283 411 325 378T367 312Q367 291 349 291Q320 291 300 319T280 372L276 376Q272 379 255 382T212 386Q149 386
122 341T95 229Q95 146 142 93T257 40Q298 40 328 50T372 70L386 81Q398 81 398 68Z" />
<glyph unicode="d" glyph-name="d" horiz-adv-x="551" d="M526 42Q526 40 517 36T489 24T462 13Q435 1 403 -10T364 -21Q358 -16 358 -12Q358 -5 359 9T360 29Q360 61 352 61Q351 61 331 44T276 9T207 -9Q163 -9 120 8T59 57Q26 113 26 204Q26 287 78 348T237
409Q263 409 289 400T331 382T348 373Q357 373 357 406V580Q357 602 356 614T343 638T308 650Q277 650 277 665Q277 673 281 675T298 678Q342 678 373 683T419 693T437 699Q450 699 450 689Q450 676 448 649T445 605L443 442Q441 278 441 172Q441 110 444 81T452
46T468 39Q472 39 491 45T514 52Q526 52 526 42ZM357 167V313Q357 341 318 361T236 382Q99 382 99 220Q99 196 104 169T123 111T163 60T228 40Q271 40 304 55T350 91Q357 103 357 167Z" />
<glyph unicode="e" glyph-name="e" horiz-adv-x="443" d="M418 288Q418 281 377 272Q345 265 258 252T127 238Q115 238 112 233T108 211Q108 162 126 126T174 72T234 45T296 36Q330 36 356 43T394 57T407 64Q411 64 414 61T417 53T396 33T332 0T246 -17Q202 -17
165 -8T95 24T44 88T25 191Q25 284 83 351T223 418Q263 418 301 401T364 362T403 319T418 288ZM317 294Q317 317 280 357T213 397Q187 397 166 381T135 341T119 299T113 267Q113 263 114 262T125 261Q167 261 305 285Q313 286 315 287T317 294Z" />
<glyph unicode="f" glyph-name="f" horiz-adv-x="316" d="M357 655Q357 625 333 625T283 644T253 664Q194 664 194 518V415Q194 406 206 406H281Q294 406 296 403T299 389T296 375T281 372H205Q197 372 196 371T194 362V71Q194 39 204 32T259 25Q277 25 281 23T286
12T282 1T259 -1Q254 -1 215 1T158 4Q138 4 100 2T57 -1Q46 -1 42 -1T35 3T32 12Q32 20 36 22T57 25Q91 25 99 32T108 66Q108 70 108 98T107 195T106 362Q106 372 95 372H74Q61 372 58 375T55 390Q55 400 58 403T74 406H91Q104 406 104 416Q104 420 104 454T103
504Q103 593 152 642T282 692Q309 692 333 680T357 655Z" />
<glyph unicode="g" glyph-name="g" horiz-adv-x="486" d="M467 412Q467 411 463 399T457 380Q450 356 430 356Q424 356 411 357T390 358Q367 358 367 353Q367 351 373 339T386 305T393 262Q393 201 342 158T212 114L170 118Q151 110 137 91T123 56Q123 37 143
34T243 30Q356 30 410 -12T464 -113Q464 -159 437 -192T369 -241T289 -264T214 -271Q161 -271 119 -263T43 -229T10 -162Q10 -126 26 -101T63 -67T99 -51T116 -40Q116 -37 100 -30T68 -8T52 25Q52 47 69 71T104 110T122 127T109 136T79 155T50 194T36 256Q36 279
45 303T73 353T129 394T217 411Q230 411 287 407T394 403Q416 403 432 407T455 417T464 422Q467 422 467 422T467 412ZM314 242Q314 308 280 349T195 390Q110 390 110 286Q110 263 114 241T128 193T161 152T217 136Q266 136 290 165T314 242ZM397 -139Q397 -92
361 -70T241 -47Q74 -47 74 -154Q74 -249 224 -249Q252 -249 279 -244T334 -227T379 -192T397 -139Z" />
<glyph unicode="h" glyph-name="h" horiz-adv-x="573" d="M561 9Q561 2 559 1T541 -1Q535 -1 503 0T451 1Q430 1 390 0T346 -1Q330 -1 328 0T325 9Q325 10 325 11Q325 16 325 18T331 23T346 25Q375 25 380 27T388 38Q396 75 396 191Q396 245 390 277T369 325T338
345T293 350Q268 350 231 334T193 301Q192 301 192 157Q192 25 220 25Q279 25 279 9Q279 2 276 1T252 -1Q247 -1 221 0T176 2Q156 2 115 1T69 -1Q50 -1 47 0T44 9Q44 14 45 17T52 22T69 25Q94 25 99 27T105 40V596Q105 634 96 642T47 650Q39 650 35 653T30 659L29
662Q29 669 29 671T33 675T45 677Q72 677 130 688T194 699T200 685Q200 682 197 620T193 535V377Q193 359 194 355T202 350Q204 350 226 365T279 394T334 409Q358 409 376 407T415 394T451 367T474 318T484 243Q484 225 483 184T481 129Q481 67 485 46T500 25Q561
25 561 9Z" />
<glyph unicode="i" glyph-name="i" horiz-adv-x="301" d="M196 568Q196 550 183 532T152 514Q122 514 122 541Q122 560 138 577T171 594Q196 594 196 568ZM279 12Q279 4 275 1T252 -2Q247 -2 207 -1T148 0Q128 0 94 -1T55 -2Q39 -2 35 0T30 11Q30 20 34 22T55
25Q61 25 78 25T99 24Q110 24 110 43V298Q110 380 82 380Q47 380 40 382T32 393T35 404T52 406H128Q144 406 166 410T195 414Q202 414 202 394Q202 382 201 254T199 114Q199 25 221 25Q261 25 270 23T279 12Z" />
<glyph unicode="j" glyph-name="j" horiz-adv-x="296" d="M210 567Q210 549 196 531T164 513Q134 513 134 540Q134 559 151 576T185 593Q210 593 210 567ZM201 397Q201 393 201 369T200 325L199 -66Q199 -146 145 -198T19 -250Q-10 -250 -27 -239T-45 -216T-32
-197T-6 -188Q11 -188 28 -204T68 -221Q108 -221 108 -67V314Q108 360 99 370T48 380Q34 380 31 382T27 393Q27 402 31 404T46 406H142Q156 406 170 409T191 413Q201 413 201 397Z" />
<glyph unicode="k" glyph-name="k" horiz-adv-x="538" d="M537 4Q537 -2 533 -3T513 -5Q506 -5 491 -5T466 -4Q456 -4 439 -5T414 -7Q401 -7 387 9T338 70Q318 93 288 134T253 175Q250 175 220 157Q191 140 191 133V72Q191 36 198 31T251 25Q278 25 278 9Q278
2 274 1T251 -1Q246 -1 204 0T143 1Q124 1 93 0T58 -1Q40 -1 35 0T29 9Q29 25 58 25Q86 25 93 27T101 40Q101 47 101 107T103 262T104 451Q104 489 104 505T104 548T103 583T101 607T98 626T94 638T88 646T80 648T70 651T57 651Q32 651 26 653T20 666Q20 678 33
678Q85 678 136 690L188 702Q199 702 199 688Q199 684 198 653T197 603Q197 528 194 395T191 179Q191 170 196 170T223 183T268 216Q310 250 330 268T375 315T399 363Q399 375 391 379T353 383Q328 383 328 397Q328 406 350 406Q357 406 372 405T394 403Q401 403
436 405T477 407Q488 407 488 402Q488 379 426 319Q400 294 360 261T319 224Q319 211 414 103Q437 72 461 46T510 20Q537 20 537 4Z" />
<glyph unicode="l" glyph-name="l" horiz-adv-x="299" d="M270 9Q270 2 264 1T231 -1Q224 -1 190 0T146 1Q126 1 90 0T48 -1Q23 -1 23 10Q23 25 48 25Q63 25 74 25T92 26T102 30T106 41V587Q106 633 98 641T55 650Q27 650 27 662Q27 678 52 678Q100 678 143 690T189
703Q199 703 199 682Q199 678 197 651T194 606Q194 510 192 331T189 122Q189 62 194 44T214 25Q253 25 261 23T270 9Z" />
<glyph unicode="m" glyph-name="m" horiz-adv-x="834" d="M804 9Q804 -1 779 -1Q774 -1 753 1T713 4Q694 4 656 2T612 -1Q595 -1 591 1T587 9Q587 25 625 25Q639 25 642 57T646 175Q646 275 630 313T554 352Q530 352 497 333T464 301V74Q464 38 470 32T505 25Q533
25 533 9Q533 2 529 1T505 -1Q500 -1 481 1T444 4Q424 4 385 2T342 -1Q325 -1 320 1T315 9Q315 25 342 25Q361 25 368 27T375 40V241Q375 264 373 279T363 313T337 342T289 352Q266 352 233 334T199 298Q198 298 198 74Q198 40 204 33T238 25Q268 25 268 9Q268
-1 238 -1Q233 -1 214 1T176 4Q156 4 115 2T70 -1Q54 -1 50 1T45 9Q45 25 70 25T101 27T108 40V305Q108 355 99 367T55 380Q36 380 36 393Q36 402 38 404T52 406Q71 406 94 406T126 405T158 408T191 411Q201 411 201 396Q201 391 200 378T199 358Q199 347 205 347Q209
347 232 362T291 393T361 408Q392 408 413 397T441 374T453 350T459 339Q463 339 478 350T512 373T563 397T625 408Q737 408 737 276Q737 234 736 161T735 74Q735 44 743 35T779 25Q790 25 797 20T804 9Z" />
<glyph unicode="n" glyph-name="n" horiz-adv-x="576" d="M557 9Q557 2 553 1T529 -1Q524 -1 488 1T433 4Q414 4 389 2T359 -1Q343 -1 339 1T335 9Q335 14 336 17T342 22T359 25Q378 25 383 28T390 41Q398 121 398 235Q398 300 373 327T298 354Q265 354 232 339T199
311Q198 311 198 104Q198 45 205 35T251 25Q268 25 272 22T276 9Q276 2 273 1T251 -1Q246 -1 205 1T145 4Q126 4 96 2T62 -1Q49 -1 45 -1T39 2T37 9T38 17T45 22T62 25Q89 25 98 27T107 40V304Q107 361 100 370T48 380Q36 380 33 383T30 394Q30 403 32 405T46 407Q56
407 85 405T125 403Q133 403 157 406T189 410Q200 410 200 359Q200 348 205 348Q207 348 232 363T294 393T363 409Q415 409 451 366T487 243Q487 192 485 132T482 67Q482 49 484 41T491 28T505 24T529 25Q542 25 548 23T556 18T557 9Z" />
<glyph unicode="o" glyph-name="o" horiz-adv-x="492" d="M462 209Q462 107 408 47T241 -13Q189 -13 149 0T86 35T47 87T27 145T22 206Q22 288 83 348T235 409Q307 409 343 390Q462 327 462 209ZM363 179Q363 246 351 283T309 347Q294 361 286 367T260 379T219
385Q178 385 157 364Q144 351 137 340T123 302T117 237Q117 8 258 8Q286 8 305 16T336 38T354 76T361 122T363 179Z" />
<glyph unicode="p" glyph-name="p" horiz-adv-x="552" d="M526 198Q526 99 465 44T318 -12Q290 -12 263 -8T218 2L202 7Q194 7 194 -8V-185Q194 -221 201 -229T237 -238Q302 -238 302 -253Q302 -261 293 -263T255 -265Q250 -265 209 -265T149 -264Q130 -264 95
-265T55 -267Q38 -267 34 -265T30 -255Q30 -238 55 -238Q87 -238 97 -232T108 -201V322Q108 362 101 371T69 380T37 382T29 392Q29 405 53 405H112Q120 405 156 411T197 417Q204 417 204 404Q204 399 200 380T195 356Q195 350 201 350Q202 350 227 364T288 392T347
407Q423 407 474 346T526 198ZM455 172Q455 241 413 294T305 348Q275 348 235 335T195 310Q195 306 195 200T194 63Q194 40 227 26T316 11Q336 11 366 24T422 61Q438 75 446 109T455 172Z" />
<glyph unicode="q" glyph-name="q" horiz-adv-x="537" d="M522 -198Q522 -208 480 -222Q454 -231 407 -251T351 -271Q343 -271 343 -254Q343 -252 346 -237T352 -196T358 -106T361 48Q361 60 356 60Q354 60 331 43T273 9T208 -9Q121 -9 76 36Q26 86 26 200Q26
296 81 352T207 409Q250 409 291 392T359 358T391 341Q395 341 413 377T438 414Q445 414 445 406Q445 404 444 385T441 336T440 279V-126Q440 -204 459 -204Q467 -204 485 -198T508 -191Q522 -191 522 -198ZM361 124L357 320Q357 333 314 354T232 375T174 368T137
344Q97 304 97 219Q97 144 132 93T237 41Q280 41 320 62T361 124Z" />
<glyph unicode="r" glyph-name="r" horiz-adv-x="397" d="M380 351Q380 343 371 318T354 293Q350 293 341 304T314 327T275 339Q197 339 197 271V74Q197 37 206 31T274 25Q292 25 296 23T301 13Q301 4 297 2T274 -1Q269 -1 232 1T176 4Q156 4 112 2T64 -1Q48 -1
44 1T39 12T43 22T64 25Q95 25 101 27T108 40V310Q108 362 102 371T54 380Q40 380 38 381T36 390Q36 391 36 392Q36 398 36 400T40 404T52 406Q71 406 109 405T155 404T171 407T188 411Q199 411 199 400Q199 397 198 388T197 377Q197 348 202 348Q204 348 245 375T311
403Q328 403 354 387T380 351Z" />
<glyph unicode="s" glyph-name="s" horiz-adv-x="387" d="M338 108Q338 73 322 49T280 15T234 1T194 -3Q129 -3 86 20T43 56Q43 72 44 98T45 139Q45 142 47 146T53 151Q57 151 72 116T105 52Q126 21 199 21Q240 21 266 36T292 83Q292 112 275 124T198 158Q108
190 81 216T53 302Q53 342 88 376T191 410Q225 410 254 401T295 384T313 368Q326 352 326 316Q326 305 322 295T312 285Q304 285 291 309T265 369L260 374Q256 379 240 384T201 389Q151 389 127 370T103 324Q103 295 136 279T229 244Q292 220 315 195T338 108Z"
/>
<glyph unicode="t" glyph-name="t" horiz-adv-x="386" d="M364 61Q364 50 305 21T216 -8Q169 -8 136 15T102 76V344Q102 359 78 373T54 393Q54 396 61 402T86 420T118 445Q123 449 140 465T170 492T189 502Q200 502 200 489Q200 484 198 455T196 415Q196 408 197
407T205 406H329Q344 406 348 403T352 387Q352 367 322 367H206Q196 367 196 358L197 120Q197 93 203 78T224 57T248 50T279 49Q301 49 326 62L350 75Q356 75 360 70T364 61Z" />
<glyph unicode="u" glyph-name="u" horiz-adv-x="591" d="M530 22Q530 15 498 1T455 -13Q434 -13 421 4T404 40L399 57L384 46Q370 36 349 24T292 2T218 -9Q106 -9 106 103V316Q106 359 96 369T50 380Q36 380 34 381T32 390Q32 391 32 392Q32 398 32 400T36 404T48
406Q67 406 85 404T111 402Q117 402 145 404T192 406Q202 406 202 389Q202 385 201 363T199 321V126Q199 81 222 63T309 45Q330 45 362 65T395 113V310Q395 359 385 369T330 380Q317 380 315 381T312 390Q312 391 312 392Q312 398 312 400T316 404T328 406Q347
406 373 404T407 402T441 404T476 406Q489 406 489 371Q489 366 489 347T488 317V111Q488 87 491 71T499 47T509 37T519 33T527 30T530 22Z" />
<glyph unicode="v" glyph-name="v" horiz-adv-x="420" d="M421 389Q421 384 417 382T406 379T391 372T378 356Q232 48 225 15Q220 -6 208 -6Q192 -6 189 10Q187 20 170 59T117 175T56 313Q41 346 36 356T22 372T-3 379Q-24 379 -24 390Q-24 406 -3 406Q11 406
36 405T74 403Q87 403 123 404T175 406Q183 406 187 405T194 401T197 390Q197 379 175 379Q143 379 143 355Q143 337 188 236Q198 214 209 189T225 151T235 129T242 120T285 231Q290 246 299 268T312 302T320 327T324 350Q324 380 299 380Q280 380 275 381T269
390Q269 401 271 403T286 406T317 404T349 402Q356 402 370 404T393 406Q410 406 415 403T421 389Z" />
<glyph unicode="w" glyph-name="w" horiz-adv-x="696" d="M698 389Q698 383 694 381T683 379T669 373T655 356Q498 43 492 15Q487 -6 475 -6Q459 -6 456 10Q454 18 346 259Q344 266 341 266Q339 266 335 258Q228 24 226 15Q221 -6 209 -6Q193 -6 190 10Q188 20
171 59T118 175T57 313Q46 337 44 341T36 358T25 372T15 377T-2 380Q-23 380 -23 390Q-23 406 -2 406Q12 406 38 405T75 403Q88 403 124 404T176 406Q184 406 188 405T195 401T198 390Q198 380 176 380Q144 380 144 355Q144 337 189 236Q202 208 215 175T234 127T243
112T297 227Q324 287 324 302Q324 310 309 343Q298 364 290 372T264 380Q243 380 243 390Q243 406 264 406Q278 406 304 405T341 403Q354 403 390 404T442 406Q450 406 454 405T461 401T464 390Q464 380 442 380Q424 380 417 375T410 355Q410 349 415 333T433 287T453
236Q498 112 503 112Q507 112 560 231Q578 268 592 301T606 350Q606 363 597 372T576 381Q562 381 557 381T549 383T546 390Q546 400 548 403T563 406Q576 406 594 404T626 402Q633 402 647 404T670 406Q687 406 692 403T698 389Z" />
<glyph unicode="x" glyph-name="x" horiz-adv-x="460" d="M472 21T472 13T468 2T451 -1Q436 -1 408 0T369 2Q355 2 314 1T257 -1Q235 -1 235 13Q235 26 257 26Q293 26 293 40Q293 46 286 56L209 161Q206 166 202 166Q194 166 186 158Q93 75 93 47Q93 35 101 31T134
26Q155 26 155 13Q155 -1 138 -1Q124 -1 100 1T63 4Q55 4 33 2T4 -1Q-21 -1 -21 14Q-21 26 -1 26Q18 26 27 30T46 50Q81 100 173 178Q181 188 181 192Q181 199 176 206L96 313Q60 362 50 371T21 380Q0 380 0 393T21 406Q36 406 71 405T117 403Q131 403 162 404T210
406Q224 406 228 404T232 394Q232 386 225 383T192 380Q175 380 175 368Q175 357 189 337L243 263L246 259Q250 255 253 255Q258 255 267 264Q337 334 337 359Q337 371 325 375T281 380Q265 380 265 390T268 403T282 406Q295 406 324 404T368 401Q375 401 393 403T419
406Q442 406 450 403T458 389Q458 382 451 381T420 380Q395 380 384 356Q371 328 282 245Q272 235 272 228Q272 222 277 215L373 82Q402 43 414 35T451 26Q463 26 467 24Z" />
<glyph unicode="y" glyph-name="y" horiz-adv-x="426" d="M439 402T439 394T434 383T413 380Q398 380 363 308T256 67Q199 -68 117 -231Q107 -252 76 -256Q63 -258 39 -263T9 -269Q-19 -269 -19 -257Q-19 -255 -7 -252T28 -236T70 -199Q109 -151 149 -92T189 -12Q189
-4 54 315Q36 357 27 368T2 380Q-11 380 -15 382T-19 393T-16 404T2 406T49 405T94 404Q108 404 131 405T170 406Q185 406 190 404T195 394Q195 385 191 383T170 380T148 374T142 351Q142 343 147 328T159 296T185 235T221 150Q238 108 246 108Q249 108 257 127T271
162Q283 200 307 267T332 342Q332 364 325 372T298 380Q275 380 269 382T263 391Q263 401 266 403T284 406T325 405T366 403Q374 403 392 404T418 406Q431 406 435 404Z" />
<glyph unicode="z" glyph-name="z" horiz-adv-x="429" d="M425 68Q425 64 415 48T401 26Q389 -7 382 -7Q379 -7 369 -6T341 -4T273 -1T150 0Q119 0 86 0T42 -1T21 0T9 3T8 10Q8 19 16 29T45 56T101 104Q174 167 244 239T314 323Q314 336 248 336Q170 336 121 332T57
322T36 313T27 308Q20 308 19 311T17 325Q17 338 30 375T52 413L66 410Q81 407 122 404T227 401Q354 401 378 400T403 388Q403 377 332 297Q287 245 202 162T116 75Q116 63 170 63Q252 63 308 67T388 76T414 81Q425 81 425 68Z" />
<glyph unicode="{" glyph-name="braceleft" horiz-adv-x="336" d="M231 696Q231 683 217 683Q213 684 208 683T198 682T186 679T175 672T164 659T155 639T149 611T147 572V330Q147 288 134 260T104 223T74 210L60 208L74 206Q87 203 103 194T133 158T147 89V-153Q147
-185 153 -208T165 -241T184 -257T201 -263T217 -264Q229 -264 229 -276Q229 -289 217 -289Q73 -289 73 -158V102Q73 139 63 163T40 196T18 207L7 209L18 212Q28 214 40 222T62 255T73 317V577Q73 617 88 645T129 685T175 703T217 708Q231 708 231 696Z" />
<glyph unicode="|" glyph-name="bar" horiz-adv-x="256" d="M147 680V-15H109V680H147Z" />
<glyph unicode="}" glyph-name="braceright" horiz-adv-x="337" d="M328 209L318 207Q307 205 295 197T273 164T262 102V-158Q262 -289 118 -289Q106 -289 106 -276Q106 -264 118 -264Q128 -264 133 -264T151 -258T169 -242T182 -208T188 -153V89Q188 130 201
157T231 194T262 206L275 208L262 210Q248 213 232 222T202 260T188 330V572Q188 596 185 615T178 645T167 665T155 676T140 681T129 683T118 683Q104 683 104 696Q104 708 118 708Q135 708 150 706T187 697T224 676T251 637T262 577V317Q262 280 272 256T295 223T318
212L328 209Z" />
<glyph unicode="~" glyph-name="asciitilde" horiz-adv-x="264" d="M239 566L257 558L250 540Q243 522 224 504T182 485Q167 485 131 499T72 513Q54 513 42 507T26 495L23 489L5 497L12 516Q19 534 38 552T80 570Q97 570 136 556T190 542Q208 542 220 548T236
560L239 566Z" />
</font>
</defs>
</svg>
